<svg width="18" height="19" viewBox="0 0 18 19" fill="none" xmlns="http://www.w3.org/2000/svg">
<path d="M9.20933 7.70965V11.1881H14.1483C13.6887 13.3985 11.7644 14.6685 9.20933 14.6685C6.2333 14.6285 3.84224 12.2577 3.84224 9.34706C3.84224 6.43638 6.2333 4.06566 9.20933 4.0256C10.4464 4.02415 11.6453 4.44397 12.6003 5.21296L15.28 2.5923C12.2061 -0.0504681 7.71692 -0.390381 4.26368 1.75817C0.810443 3.90672 -0.776892 8.02737 0.368424 11.8701C1.51374 15.7128 5.11645 18.354 9.20933 18.3516C13.8134 18.3516 18 15.0767 18 9.34656C17.9929 8.79485 17.9238 8.24557 17.7939 7.70864L9.20933 7.70965Z" fill="white"/>
</svg>
