<svg width="20" height="18" viewBox="0 0 20 18" fill="none" xmlns="http://www.w3.org/2000/svg">
<path d="M17.6441 3.5321C18.5012 2.99593 19.1425 2.15165 19.4483 1.15692C18.6429 1.65697 17.7618 2.00922 16.8429 2.19844C15.569 0.788258 13.5505 0.445084 11.9155 1.36067C10.2804 2.27626 9.4335 4.22394 9.84798 6.1154C6.54901 5.94209 3.47544 4.31141 1.3921 1.62915C0.304847 3.59156 0.860458 6.10017 2.66182 7.36202C2.01043 7.34011 1.37348 7.15556 0.804092 6.82375C0.804092 6.84176 0.804092 6.85977 0.804092 6.87778C0.804469 8.92196 2.18125 10.6828 4.09599 11.0879C3.49179 11.2599 2.85802 11.2852 2.24304 11.1619C2.78153 12.9101 4.32121 14.1077 6.07611 14.1434C4.62265 15.3371 2.82769 15.9845 0.980017 15.9813C0.65252 15.9818 0.32528 15.9621 0 15.9223C1.87627 17.184 4.06002 17.8536 6.29028 17.8513C9.39311 17.8736 12.375 16.5936 14.569 14.2975C16.763 12.0015 17.986 8.88103 17.9644 5.63416C17.9644 5.44806 17.9603 5.26297 17.952 5.07888C18.7556 4.47118 19.4491 3.71835 20 2.85577C19.2514 3.203 18.4573 3.43098 17.6441 3.5321Z" fill="white"/>
</svg>
