<svg width="21" height="21" viewBox="0 0 21 21" fill="none" xmlns="http://www.w3.org/2000/svg">
<path d="M0.00195312 10.4147C0.00311667 15.3643 3.58036 19.5788 8.43895 20.3545V13.3225H5.90195V10.4147H8.44195V8.20113C8.32841 7.15225 8.68447 6.10691 9.41359 5.34861C10.1427 4.59031 11.1693 4.19765 12.215 4.27712C12.9655 4.28932 13.7141 4.35657 14.455 4.47835V6.95249H13.191C12.7558 6.89514 12.3183 7.03975 12.0017 7.34556C11.6851 7.65138 11.5237 8.08531 11.563 8.52511V10.4147H14.334L13.891 13.3235H11.563V20.3545C16.8174 19.519 20.502 14.6906 19.9475 9.36734C19.3929 4.04406 14.7932 0.0894258 9.48078 0.368382C4.16831 0.647338 0.0027976 5.06223 0.00195312 10.4147Z" fill="white"/>
</svg>
