<svg width="35" height="35" viewBox="0 0 35 35" fill="none" xmlns="http://www.w3.org/2000/svg">
<path d="M30.6003 28.3833C32.3506 26.2774 33.568 23.7809 34.1494 21.1051C34.7308 18.4293 34.6591 15.6528 33.9405 13.0105C33.222 10.3681 31.8775 7.93779 30.021 5.92496C28.1645 3.91213 25.8505 2.37605 23.2748 1.44667C20.699 0.517288 17.9373 0.221943 15.2233 0.585617C12.5093 0.949292 9.92281 1.96129 7.68262 3.536C5.44244 5.11071 3.61447 7.2018 2.35337 9.63239C1.09226 12.063 0.435108 14.7615 0.437507 17.4998C0.438427 21.4805 1.8412 25.3337 4.39966 28.3833L4.37529 28.404C4.4606 28.5063 4.5581 28.5941 4.64585 28.6953C4.75554 28.8208 4.87376 28.939 4.9871 29.0609C5.32835 29.4314 5.67935 29.7873 6.04741 30.1212C6.15954 30.2236 6.27532 30.3186 6.38866 30.4161C6.77866 30.7525 7.17963 31.0718 7.59522 31.3692C7.64885 31.4058 7.6976 31.4533 7.75122 31.4911V31.4764C10.6057 33.4851 14.0108 34.5632 17.5012 34.5632C20.9916 34.5632 24.3968 33.4851 27.2512 31.4764V31.4911C27.3048 31.4533 27.3524 31.4058 27.4072 31.3692C27.8216 31.0706 28.2238 30.7525 28.6138 30.4161C28.7271 30.3186 28.8429 30.2223 28.955 30.1212C29.3231 29.786 29.6741 29.4314 30.0153 29.0609C30.1287 28.939 30.2457 28.8208 30.3566 28.6953C30.4431 28.5941 30.5418 28.5063 30.6272 28.4028L30.6003 28.3833ZM17.5 7.74982C18.5847 7.74982 19.6451 8.07147 20.547 8.6741C21.4489 9.27673 22.1518 10.1333 22.5669 11.1354C22.982 12.1376 23.0906 13.2403 22.879 14.3041C22.6674 15.368 22.145 16.3452 21.378 17.1122C20.611 17.8792 19.6338 18.4016 18.57 18.6132C17.5061 18.8248 16.4034 18.7162 15.4012 18.3011C14.3991 17.886 13.5425 17.1831 12.9399 16.2811C12.3373 15.3792 12.0156 14.3189 12.0156 13.2342C12.0156 11.7796 12.5934 10.3847 13.622 9.35616C14.6505 8.32764 16.0455 7.74982 17.5 7.74982ZM7.75854 28.3833C7.77968 26.783 8.43 25.2554 9.56882 24.131C10.7076 23.0065 12.2434 22.3756 13.8438 22.3748H21.1563C22.7567 22.3756 24.2924 23.0065 25.4312 24.131C26.57 25.2554 27.2203 26.783 27.2415 28.3833C24.5686 30.7919 21.0981 32.1249 17.5 32.1249C13.9019 32.1249 10.4314 30.7919 7.75854 28.3833Z" fill="#243A73"/>
</svg>
