<svg width="29" height="29" viewBox="0 0 29 29" fill="none" xmlns="http://www.w3.org/2000/svg">
<path d="M0 0H29V29H0V0Z" fill="white" fill-opacity="0.01"/>
<path d="M2.41634 8.45849L1.87596 7.3777C1.46659 7.58239 1.20801 8.00084 1.20801 8.45849H2.41634ZM14.4997 2.41683L15.04 1.33606C14.6999 1.16597 14.2995 1.16597 13.9593 1.33606L14.4997 2.41683ZM26.583 8.45849H27.7913C27.7913 8.00084 27.5328 7.58239 27.1234 7.3777L26.583 8.45849ZM26.583 20.5418L27.1234 21.6226C27.5328 21.4179 27.7913 20.9995 27.7913 20.5418H26.583ZM14.4997 26.5835L13.9593 27.6643C14.2995 27.8344 14.6999 27.8344 15.04 27.6643L14.4997 26.5835ZM2.41634 20.5418H1.20801C1.20801 20.9995 1.46659 21.4179 1.87596 21.6226L2.41634 20.5418ZM2.95673 9.53929L15.04 3.49759L13.9593 1.33606L1.87596 7.3777L2.95673 9.53929ZM25.3747 8.45849V20.5418H27.7913V8.45849H25.3747ZM26.0426 19.461L13.9593 25.5027L15.04 27.6643L27.1234 21.6226L26.0426 19.461ZM15.04 25.5027L2.95673 19.461L1.87596 21.6226L13.9593 27.6643L15.04 25.5027ZM3.62467 20.5418V8.45849H1.20801V20.5418H3.62467ZM27.1234 7.3777L15.04 1.33606L13.9593 3.49759L26.0426 9.53929L27.1234 7.3777Z" fill="white"/>
<path d="M2.41699 8.4585L14.5003 14.5002" stroke="white" stroke-width="2" stroke-linecap="round" stroke-linejoin="round"/>
<path d="M14.5 26.5833V14.5" stroke="white" stroke-width="2" stroke-linecap="round" stroke-linejoin="round"/>
<path d="M26.5833 8.4585L14.5 14.5002" stroke="white" stroke-width="2" stroke-linecap="round" stroke-linejoin="round"/>
<path d="M21.0823 6.51839C21.6792 6.21994 21.9211 5.49411 21.6227 4.89721C21.3243 4.30033 20.5984 4.05839 20.0016 4.35684L21.0823 6.51839ZM7.91823 10.3985C7.32132 10.6969 7.07941 11.4228 7.37781 12.0196C7.67626 12.6166 8.40211 12.8585 8.99897 12.5601L7.91823 10.3985ZM20.0016 4.35684L7.91823 10.3985L8.99897 12.5601L21.0823 6.51839L20.0016 4.35684Z" fill="white"/>
</svg>
