<svg width="27" height="27" viewBox="0 0 27 27" fill="none" xmlns="http://www.w3.org/2000/svg">
<path d="M23.625 5.0625H3.375C2.92745 5.0625 2.49822 5.24029 2.18176 5.55676C1.86529 5.87322 1.6875 6.30245 1.6875 6.75V20.25C1.6875 20.6976 1.86529 21.1268 2.18176 21.4432C2.49822 21.7597 2.92745 21.9375 3.375 21.9375H23.625C24.0726 21.9375 24.5018 21.7597 24.8182 21.4432C25.1347 21.1268 25.3125 20.6976 25.3125 20.25V6.75C25.3125 6.30245 25.1347 5.87322 24.8182 5.55676C24.5018 5.24029 24.0726 5.0625 23.625 5.0625ZM21.7687 6.75L13.5 12.4706L5.23125 6.75H21.7687ZM3.375 20.25V7.51781L13.0191 14.1919C13.1603 14.2899 13.3281 14.3424 13.5 14.3424C13.6719 14.3424 13.8397 14.2899 13.9809 14.1919L23.625 7.51781V20.25H3.375Z" fill="black" fill-opacity="0.25"/>
</svg>
