<svg width="30" height="30" viewBox="0 0 30 30" fill="none" xmlns="http://www.w3.org/2000/svg">
<path d="M7.5 7.5H9.375V11.25H7.5V7.5Z" fill="black" fill-opacity="0.25"/>
<path d="M7.5 13.1255H9.375V16.8755H7.5V13.1255Z" fill="black" fill-opacity="0.25"/>
<path d="M13.125 7.5H15V11.25H13.125V7.5Z" fill="black" fill-opacity="0.25"/>
<path d="M13.125 13.1255H15V16.8755H13.125V13.1255Z" fill="black" fill-opacity="0.25"/>
<path d="M7.5 18.75H9.375V22.5H7.5V18.75Z" fill="black" fill-opacity="0.25"/>
<path d="M13.125 18.75H15V22.5H13.125V18.75Z" fill="black" fill-opacity="0.25"/>
<path d="M28.125 13.1245C28.125 12.6272 27.9275 12.1503 27.5758 11.7987C27.2242 11.4471 26.7473 11.2495 26.25 11.2495H20.625V3.74951C20.625 3.25223 20.4275 2.77532 20.0758 2.42369C19.7242 2.07206 19.2473 1.87451 18.75 1.87451H3.75C3.25272 1.87451 2.77581 2.07206 2.42417 2.42369C2.07254 2.77532 1.875 3.25223 1.875 3.74951V28.1245H28.125V13.1245ZM3.75 3.74951H18.75V26.2495H3.75V3.74951ZM20.625 26.2495V13.1245H26.25V26.2495H20.625Z" fill="black" fill-opacity="0.25"/>
</svg>
