<svg width="23" height="23" viewBox="0 0 23 23" fill="none" xmlns="http://www.w3.org/2000/svg">
<path d="M11.7572 16.5502C11.518 16.549 11.2821 16.4955 11.0666 16.3935C10.8511 16.2915 10.6613 16.1436 10.5111 15.9605L6.56683 11.2612C6.33635 10.9783 6.19131 10.6374 6.14824 10.2774C6.10517 9.91732 6.16581 9.55262 6.32324 9.22483C6.45092 8.93995 6.65928 8.69723 6.92343 8.52567C7.18758 8.3541 7.49636 8.26095 7.81289 8.25732H15.7015C16.018 8.26095 16.3268 8.3541 16.591 8.52567C16.8551 8.69723 17.0635 8.93995 17.1912 9.22483C17.3486 9.55262 17.4092 9.91732 17.3662 10.2774C17.3231 10.6374 17.1781 10.9783 16.9476 11.2612L13.0033 15.9605C12.8531 16.1436 12.6633 16.2915 12.4478 16.3935C12.2323 16.4955 11.9964 16.549 11.7572 16.5502Z" fill="#231F20"/>
</svg>
