<svg width="33" height="34" viewBox="0 0 33 34" fill="none" xmlns="http://www.w3.org/2000/svg">
<path d="M32.0753 21.5684L29.6331 19.5148C29.7487 18.818 29.8083 18.1066 29.8083 17.3952C29.8083 16.6838 29.7487 15.9724 29.6331 15.2756L32.0753 13.2221C32.2595 13.067 32.3914 12.8604 32.4533 12.6298C32.5152 12.3993 32.5043 12.1556 32.4221 11.9313L32.3885 11.8359C31.7162 9.9878 30.7094 8.27457 29.4168 6.779L29.3497 6.70199C29.1929 6.52067 28.9839 6.39032 28.7503 6.32813C28.5167 6.26594 28.2694 6.27483 28.041 6.35362L25.0097 7.41341C23.8911 6.51131 22.642 5.79989 21.2923 5.30117L20.7069 2.18415C20.6627 1.94961 20.5471 1.73384 20.3752 1.5655C20.2034 1.39717 19.9836 1.28423 19.7449 1.24171L19.6443 1.22337C17.7017 0.878667 15.6584 0.878667 13.7158 1.22337L13.6152 1.24171C13.3765 1.28423 13.1567 1.39717 12.9849 1.5655C12.813 1.73384 12.6974 1.94961 12.6532 2.18415L12.0641 5.31584C10.7251 5.81466 9.4782 6.5257 8.3728 7.42074L5.31911 6.35362C5.09079 6.2742 4.84331 6.26499 4.60954 6.32722C4.37578 6.38944 4.1668 6.52016 4.01038 6.70199L3.94326 6.779C2.65223 8.27563 1.64563 9.98857 0.971595 11.8359L0.938038 11.9313C0.770252 12.3896 0.908209 12.903 1.28479 13.2221L3.75684 15.2976C3.64125 15.987 3.58532 16.6911 3.58532 17.3915C3.58532 18.0956 3.64125 18.7997 3.75684 19.4854L1.28479 21.561C1.10059 21.7161 0.968748 21.9227 0.906807 22.1533C0.844867 22.3838 0.855759 22.6275 0.938038 22.8518L0.971595 22.9472C1.64647 24.7954 2.64572 26.5006 3.94326 28.0041L4.01038 28.0811C4.16718 28.2624 4.37617 28.3928 4.60979 28.455C4.84342 28.5171 5.09072 28.5083 5.31911 28.4295L8.3728 27.3623C9.48392 28.2608 10.7255 28.9722 12.0641 29.4672L12.6532 32.5989C12.6974 32.8335 12.813 33.0492 12.9849 33.2176C13.1567 33.3859 13.3765 33.4989 13.6152 33.5414L13.7158 33.5597C15.6763 33.9063 17.6838 33.9063 19.6443 33.5597L19.7449 33.5414C19.9836 33.4989 20.2034 33.3859 20.3752 33.2176C20.5471 33.0492 20.6627 32.8335 20.7069 32.5989L21.2923 29.4819C22.6415 28.9845 23.8976 28.2708 25.0097 27.3697L28.041 28.4295C28.2693 28.5089 28.5168 28.5181 28.7506 28.4559C28.9843 28.3936 29.1933 28.2629 29.3497 28.0811L29.4168 28.0041C30.7144 26.4969 31.7136 24.7954 32.3885 22.9472L32.4221 22.8518C32.5899 22.4008 32.4519 21.8874 32.0753 21.5684ZM26.9858 15.7084C27.079 16.2621 27.1275 16.8305 27.1275 17.3989C27.1275 17.9673 27.079 18.5357 26.9858 19.0894L26.7397 20.5599L29.525 22.9032C29.1027 23.8599 28.5698 24.7655 27.9366 25.6021L24.4765 24.3957L23.3057 25.3418C22.4146 26.0605 21.4228 26.6253 20.349 27.0213L18.9284 27.5457L18.261 31.1028C17.2079 31.2201 16.1447 31.2201 15.0917 31.1028L14.4243 27.5384L13.0149 27.0066C11.9522 26.6106 10.9642 26.0459 10.0805 25.3308L8.90972 24.381L5.42723 25.5985C4.79338 24.7587 4.26392 23.8529 3.83886 22.8995L6.65393 20.5342L6.41158 19.0674C6.32209 18.521 6.27362 17.9563 6.27362 17.3989C6.27362 16.8378 6.31836 16.2767 6.41158 15.7304L6.65393 14.2635L3.83886 11.8983C4.26019 10.9411 4.79338 10.039 5.42723 9.19928L8.90972 10.4167L10.0805 9.46698C10.9642 8.75189 11.9522 8.18716 13.0149 7.79112L14.428 7.26673L15.0954 3.70232C16.1431 3.58497 17.2132 3.58497 18.2647 3.70232L18.9321 7.25939L20.3527 7.78378C21.4228 8.17983 22.4183 8.74456 23.3095 9.46331L24.4802 10.4094L27.9403 9.20295C28.5742 10.0427 29.1036 10.9485 29.5287 11.9019L26.7435 14.2452L26.9858 15.7084ZM16.6838 10.5781C13.0596 10.5781 10.1215 13.4678 10.1215 17.0322C10.1215 20.5966 13.0596 23.4862 16.6838 23.4862C20.308 23.4862 23.2461 20.5966 23.2461 17.0322C23.2461 13.4678 20.308 10.5781 16.6838 10.5781ZM19.6368 19.9365C19.2495 20.3185 18.7892 20.6215 18.2824 20.8279C17.7756 21.0343 17.2323 21.1401 16.6838 21.1393C15.5689 21.1393 14.5212 20.7103 13.7308 19.9365C13.3423 19.5556 13.0343 19.1029 12.8244 18.6044C12.6145 18.106 12.5069 17.5717 12.5078 17.0322C12.5078 15.9357 12.944 14.9053 13.7308 14.1278C14.5212 13.3504 15.5689 12.925 16.6838 12.925C17.7986 12.925 18.8464 13.3504 19.6368 14.1278C20.0252 14.5088 20.3333 14.9615 20.5431 15.4599C20.753 15.9583 20.8606 16.4927 20.8598 17.0322C20.8598 18.1286 20.4235 19.1591 19.6368 19.9365Z" fill="black"/>
</svg>
