<svg width="29" height="28" viewBox="0 0 29 28" fill="none" xmlns="http://www.w3.org/2000/svg">
<path d="M21.9731 20.8024L27.8254 26.5581C28.1219 26.8498 28.1219 27.3225 27.8254 27.6141C27.5289 27.9057 27.0482 27.9057 26.7517 27.6141L20.8994 21.8584C18.7579 23.7178 15.9446 24.846 12.8633 24.846C6.15445 24.846 0.71582 19.4971 0.71582 12.8989C0.71582 6.3006 6.15445 0.95166 12.8633 0.95166C19.5722 0.95166 25.0109 6.3006 25.0109 12.8989C25.0109 15.9293 23.8637 18.6962 21.9731 20.8024ZM12.8633 23.3526C18.7336 23.3526 23.4924 18.6723 23.4924 12.8989C23.4924 7.12538 18.7336 2.44506 12.8633 2.44506C6.99306 2.44506 2.23426 7.12538 2.23426 12.8989C2.23426 18.6723 6.99306 23.3526 12.8633 23.3526Z" fill="black"/>
</svg>
